.
 
http://www.scenetime.com    -  Hottest private tracker on the net. !!!

New release on http://www.scenetime.com

        Seed back for speed


...................................NFO:.................................................[img]http://img815.imageshack.us/img815/5671/arthurchristmas2011dvd.jpg[/img]


[color=blue][size=5][b]Arthur.Christmas.2011.DVDScr.XVID.AC3.HQ.Hive-CM8[/b][/size][/color]


[b]Thx Hive

CM8 Doing it right the first time :D


Source: DVDSCR DVD-R JKR
thx

Encode:
DVD was very nice, just the usual annoying watermarks inside, also
a bit dark in some spots and brightness, constrast not that great.

I removed those watermarks in transitions spots so you wont see anything from them
again, fixed brightness, contrast when needed and added sharpness, rgb and denoise.
Since it came along with 5.1 audio it does look like a dvdrip now, no need for a
further dvdrip later on.
got very nice
enjoy

Video: 720x384 @bitrate 1700 2pass
Audio: English AC3 5.1 @448
Sample: Yes, included[/b]
 
http://www.imdb.com/title/tt1430607/


General
Complete name                  : Arthur.Christmas.2011.DVDScr.XVID.AC3.HQ.Hive-CM8.avi
Format                         : AVI
Format/Info                    : Audio Video Interleave
File size                      : 1.45 GiB
Duration                       : 1h 37mn
Overall bit rate               : 2 131 Kbps
Writing application            : Nandub v1.0rc2
Writing library                : Nandub build 1853/release

Video
ID                             : 0
Format                         : MPEG-4 Visual
Format profile                 : Advanced Simple@L5
Format settings, BVOP          : 2
Format settings, QPel          : Yes
Format settings, GMC           : No warppoints
Format settings, Matrix        : Default (H.263)
Muxing mode                    : Packed bitstream
Codec ID                       : XVID
Codec ID/Hint                  : XviD
Duration                       : 1h 37mn
Bit rate                       : 1 674 Kbps
Width                          : 720 pixels
Height                         : 384 pixels
Display aspect ratio           : 1.875
Frame rate                     : 23.976 fps
Color space                    : YUV
Chroma subsampling             : 4:2:0
Bit depth                      : 8 bits
Scan type                      : Progressive
Compression mode               : Lossy
Bits/(Pixel*Frame)             : 0.253
Stream size                    : 1.14 GiB (79%)
Writing library                : XviD 1.2.1 (UTC 2008-12-04)

Audio
ID                             : 1
Format                         : AC-3
Format/Info                    : Audio Coding 3
Mode extension                 : CM (complete main)
Codec ID                       : 2000
Duration                       : 1h 37mn
Bit rate mode                  : Constant
Bit rate                       : 448 Kbps
Channel(s)                     : 6 channels
Channel positions              : Front: L C R, Side: L R, LFE
Sampling rate                  : 48.0 KHz
Bit depth                      : 16 bits
Compression mode               : Lossy
Delay relative to video        : 78ms
Stream size                    : 312 MiB (21%)
Alignment                      : Split accross interleaves
Interleave, duration           : 42 ms (1.00 video frame)
Interleave, preload duration   : 500 ms


Plot:
On Christmas night at the North Pole, Santa's youngest son looks to
use his father's high-tech operation for an urgent mission.


Cast:
James McAvoy     ...    Arthur (voice)
Hugh Laurie      ...    Steve (voice)
Bill Nighy       ...    Grandsanta (voice)
Jim Broadbent    ...    Santa (voice)


[img]http://img832.imageshack.us/img832/2171/28769208.png[/img]
[img]http://img265.imageshack.us/img265/3637/arar.png[/img]
[img]http://img593.imageshack.us/img593/431/ararar.png[/img]
[img]http://img10.imageshack.us/img10/357/arararar.png[/img]
[img]http://img6.imageshack.us/img6/8092/ararararar.png[/img]
[img]http://img853.imageshack.us/img853/4360/arararararar.png[/img]
[img]http://img408.imageshack.us/img408/9115/ararararararar.png[/img]
[img]http://img256.imageshack.us/img256/8466/arararararararar.png[/img]



Greetz

ViSiON,SPK,SceneLovers,PRESTiGE,SANTi,3LT0N,YanKeeS,COPYxRIGHT,THC,T0XiC
D2U,LKRG,Feel-Free,FLAWL3SS,WBZ,BHRG,26K,NOVA,SeToNeUp,TED,MAGNET,jtr
Unevano,Rapeseed,SAFC,goldadvance,KaN1vE,Pinnz,Wayne
Mr Hive,and most P2P groups
Great Work Guys :D

LOOKING FOR ANYTHING YOU WANT TO LOOK AND SOUND BETTER

CM8@hushmail.com